%TF.GenerationSoftware,KiCad,Pcbnew,6.0.2+dfsg-1*%
%TF.CreationDate,2022-11-13T19:27:55+00:00*%
%TF.ProjectId,HDC,4844432e-6b69-4636-9164-5f7063625858,rev?*%
%TF.SameCoordinates,Original*%
%TF.FileFunction,Soldermask,Top*%
%TF.FilePolarity,Negative*%
%FSLAX46Y46*%
G04 Gerber Fmt 4.6, Leading zero omitted, Abs format (unit mm)*
G04 Created by KiCad (PCBNEW 6.0.2+dfsg-1) date 2022-11-13 19:27:55*
%MOMM*%
%LPD*%
G01*
G04 APERTURE LIST*
%ADD10C,1.600000*%
%ADD11O,1.600000X1.600000*%
%ADD12R,1.800000X1.800000*%
%ADD13C,1.800000*%
%ADD14R,2.400000X1.600000*%
%ADD15O,2.400000X1.600000*%
%ADD16C,3.500000*%
%ADD17R,1.780000X7.620000*%
%ADD18R,1.700000X1.700000*%
%ADD19O,1.700000X1.700000*%
%ADD20R,1.500000X1.050000*%
%ADD21O,1.500000X1.050000*%
G04 APERTURE END LIST*
D10*
%TO.C,R3*%
X114190000Y-116000000D03*
D11*
X121810000Y-116000000D03*
%TD*%
D12*
%TO.C,D1*%
X98000000Y-119000000D03*
D13*
X95460000Y-119000000D03*
%TD*%
D14*
%TO.C,U3*%
X103825000Y-143625000D03*
D15*
X103825000Y-141085000D03*
X103825000Y-138545000D03*
X103825000Y-136005000D03*
X103825000Y-133465000D03*
X103825000Y-130925000D03*
X103825000Y-128385000D03*
X96205000Y-128385000D03*
X96205000Y-130925000D03*
X96205000Y-133465000D03*
X96205000Y-136005000D03*
X96205000Y-138545000D03*
X96205000Y-141085000D03*
X96205000Y-143625000D03*
%TD*%
D10*
%TO.C,R2*%
X114190000Y-124000000D03*
D11*
X121810000Y-124000000D03*
%TD*%
D16*
%TO.C,H2*%
X170000000Y-139000000D03*
%TD*%
D17*
%TO.C,J1*%
X101340000Y-152875000D03*
X103880000Y-152875000D03*
X106420000Y-152875000D03*
X108960000Y-152875000D03*
X114040000Y-152875000D03*
X116580000Y-152875000D03*
X119120000Y-152875000D03*
X121660000Y-152875000D03*
X124200000Y-152875000D03*
X126740000Y-152875000D03*
X129280000Y-152875000D03*
X131820000Y-152875000D03*
X134360000Y-152875000D03*
X136900000Y-152875000D03*
X139440000Y-152875000D03*
X141980000Y-152875000D03*
X144520000Y-152875000D03*
X147060000Y-152875000D03*
X149600000Y-152875000D03*
X152140000Y-152875000D03*
X154680000Y-152875000D03*
X157220000Y-152875000D03*
X159760000Y-152875000D03*
X162300000Y-152875000D03*
X164840000Y-152875000D03*
X167380000Y-152875000D03*
X169920000Y-152875000D03*
%TD*%
D10*
%TO.C,R1*%
X174000000Y-123810000D03*
D11*
X174000000Y-116190000D03*
%TD*%
D18*
%TO.C,J5*%
X143625000Y-119725000D03*
D19*
X143625000Y-122265000D03*
%TD*%
D18*
%TO.C,J3*%
X104000000Y-112000000D03*
D19*
X106540000Y-112000000D03*
%TD*%
D10*
%TO.C,C1*%
X101000000Y-125000000D03*
X103500000Y-125000000D03*
%TD*%
%TO.C,R4*%
X114190000Y-120000000D03*
D11*
X121810000Y-120000000D03*
%TD*%
D18*
%TO.C,J4*%
X167155000Y-105000000D03*
D19*
X167155000Y-107540000D03*
X164615000Y-105000000D03*
X164615000Y-107540000D03*
X162075000Y-105000000D03*
X162075000Y-107540000D03*
X159535000Y-105000000D03*
X159535000Y-107540000D03*
X156995000Y-105000000D03*
X156995000Y-107540000D03*
X154455000Y-105000000D03*
X154455000Y-107540000D03*
X151915000Y-105000000D03*
X151915000Y-107540000D03*
X149375000Y-105000000D03*
X149375000Y-107540000D03*
X146835000Y-105000000D03*
X146835000Y-107540000D03*
X144295000Y-105000000D03*
X144295000Y-107540000D03*
X141755000Y-105000000D03*
X141755000Y-107540000D03*
X139215000Y-105000000D03*
X139215000Y-107540000D03*
X136675000Y-105000000D03*
X136675000Y-107540000D03*
X134135000Y-105000000D03*
X134135000Y-107540000D03*
X131595000Y-105000000D03*
X131595000Y-107540000D03*
X129055000Y-105000000D03*
X129055000Y-107540000D03*
X126515000Y-105000000D03*
X126515000Y-107540000D03*
X123975000Y-105000000D03*
X123975000Y-107540000D03*
X121435000Y-105000000D03*
X121435000Y-107540000D03*
X118895000Y-105000000D03*
X118895000Y-107540000D03*
%TD*%
D12*
%TO.C,D2*%
X107000000Y-119000000D03*
D13*
X104460000Y-119000000D03*
%TD*%
D18*
%TO.C,J2*%
X95725000Y-112000000D03*
D19*
X98265000Y-112000000D03*
%TD*%
D16*
%TO.C,H3*%
X110000000Y-139000000D03*
%TD*%
D20*
%TO.C,Q1*%
X174000000Y-104394000D03*
D21*
X174000000Y-105664000D03*
X174000000Y-106934000D03*
%TD*%
M02*
