M48
; DRILL file {KiCad 6.0.2+dfsg-1} date Sun 13 Nov 2022 19:40:08 GMT
; FORMAT={-:-/ absolute / inch / decimal}
; #@! TF.CreationDate,2022-11-13T19:40:08+00:00
; #@! TF.GenerationSoftware,Kicad,Pcbnew,6.0.2+dfsg-1
; #@! TF.FileFunction,Plated,1,2,PTH
FMAT,2
INCH
; #@! TA.AperFunction,Plated,PTH,ViaDrill
T1C0.0157
; #@! TA.AperFunction,Plated,PTH,ComponentDrill
T2C0.0295
; #@! TA.AperFunction,Plated,PTH,ComponentDrill
T3C0.0315
; #@! TA.AperFunction,Plated,PTH,ComponentDrill
T4C0.0354
; #@! TA.AperFunction,Plated,PTH,ComponentDrill
T5C0.0394
%
G90
G05
T1
X3.72Y-4.05
X3.73Y-5.77
X3.78Y-4.31
X3.82Y-4.87
X3.84Y-4.98
X3.88Y-5.18
X3.9Y-4.14
X3.9Y-4.48
X3.9Y-4.57
X3.93Y-5.31
X3.93Y-5.46
X3.94Y-5.62
X4.03Y-4.49
X4.06Y-5.78
X4.1679Y-5.7379
X4.17Y-5.2
X4.249Y-4.9715
X4.29Y-5.19
X4.2913Y-5.748
X4.3504Y-4.1634
X4.37Y-4.61
X4.39Y-4.8
X4.42Y-5.76
X4.4203Y-5.1319
X4.45Y-5.67
X4.47Y-5.3
X4.525Y-5.4699
X4.5374Y-5.689
X4.54Y-5.61
X4.5768Y-5.1575
X4.58Y-5.25
X4.6063Y-5.3543
X4.6457Y-4.3701
X4.6457Y-5.4626
X4.6752Y-5.0394
X4.685Y-5.2756
X4.77Y-5.67
X4.79Y-5.24
X4.8031Y-5.315
X4.83Y-4.06
X4.8524Y-4.9606
X4.8622Y-4.8425
X4.8819Y-5.2835
X4.95Y-5.68
X4.98Y-3.98
X4.9803Y-4.3307
X5.08Y-5.24
X5.1181Y-5.2599
X5.15Y-4.9
X5.1673Y-4.7146
X5.2657Y-5.0591
X5.2756Y-5.5512
X5.33Y-4.08
X5.3346Y-4.8819
X5.4134Y-4.5472
X5.4331Y-5.0591
X5.4724Y-5.4331
X5.4823Y-5.0787
X5.5217Y-4.9409
X5.5413Y-5.0689
X5.61Y-5.04
X5.6358Y-4.05
X5.6398Y-5.7579
X5.6693Y-4.0157
X5.6693Y-5.0787
X5.7382Y-5.5709
X5.74Y-4.39
X5.748Y-5.0394
X5.8819Y-4.3937
X5.9252Y-5.315
X5.9843Y-4.4016
X5.9843Y-5.4331
X6.0335Y-5.7087
X6.04Y-4.08
X6.0945Y-4.4016
X6.1811Y-5.6201
X6.189Y-4.4016
X6.2008Y-5.128
X6.2677Y-4.4016
X6.378Y-4.3937
X6.46Y-5.0
X6.65Y-4.05
X6.6929Y-4.1732
X6.74Y-4.05
X6.8258Y-5.0394
X6.83Y-4.37
X6.93Y-4.01
T2
X6.8504Y-4.11
X6.8504Y-4.16
X6.8504Y-4.21
T3
X3.7876Y-5.0545
X3.7876Y-5.1545
X3.7876Y-5.2545
X3.7876Y-5.3545
X3.7876Y-5.4545
X3.7876Y-5.5545
X3.7876Y-5.6545
X3.9764Y-4.9213
X4.0748Y-4.9213
X4.0876Y-5.0545
X4.0876Y-5.1545
X4.0876Y-5.2545
X4.0876Y-5.3545
X4.0876Y-5.4545
X4.0876Y-5.5545
X4.0876Y-5.6545
X4.4957Y-4.5669
X4.4957Y-4.7244
X4.4957Y-4.8819
X4.7957Y-4.5669
X4.7957Y-4.7244
X4.7957Y-4.8819
X6.8504Y-4.5744
X6.8504Y-4.8744
T4
X3.7583Y-4.685
X3.8583Y-4.685
X4.1126Y-4.685
X4.2126Y-4.685
T5
X3.7687Y-4.4094
X3.8687Y-4.4094
X4.0945Y-4.4094
X4.1945Y-4.4094
X4.6809Y-4.1339
X4.6809Y-4.2339
X4.7809Y-4.1339
X4.7809Y-4.2339
X4.8809Y-4.1339
X4.8809Y-4.2339
X4.9809Y-4.1339
X4.9809Y-4.2339
X5.0809Y-4.1339
X5.0809Y-4.2339
X5.1809Y-4.1339
X5.1809Y-4.2339
X5.2809Y-4.1339
X5.2809Y-4.2339
X5.3809Y-4.1339
X5.3809Y-4.2339
X5.4809Y-4.1339
X5.4809Y-4.2339
X5.5809Y-4.1339
X5.5809Y-4.2339
X5.6545Y-4.7136
X5.6545Y-4.8136
X5.6809Y-4.1339
X5.6809Y-4.2339
X5.7809Y-4.1339
X5.7809Y-4.2339
X5.8809Y-4.1339
X5.8809Y-4.2339
X5.9809Y-4.1339
X5.9809Y-4.2339
X6.0809Y-4.1339
X6.0809Y-4.2339
X6.1809Y-4.1339
X6.1809Y-4.2339
X6.2809Y-4.1339
X6.2809Y-4.2339
X6.3809Y-4.1339
X6.3809Y-4.2339
X6.4809Y-4.1339
X6.4809Y-4.2339
X6.5809Y-4.1339
X6.5809Y-4.2339
T0
M30
