M48
; DRILL file {KiCad 6.0.2+dfsg-1} date Sun 13 Nov 2022 19:39:08 GMT
; FORMAT={-:-/ absolute / inch / decimal}
; #@! TF.CreationDate,2022-11-13T19:39:08+00:00
; #@! TF.GenerationSoftware,Kicad,Pcbnew,6.0.2+dfsg-1
; #@! TF.FileFunction,Plated,1,2,PTH
FMAT,2
INCH
; #@! TA.AperFunction,Plated,PTH,ViaDrill
T1C0.0157
; #@! TA.AperFunction,Plated,PTH,ComponentDrill
T2C0.0295
; #@! TA.AperFunction,Plated,PTH,ComponentDrill
T3C0.0315
; #@! TA.AperFunction,Plated,PTH,ComponentDrill
T4C0.0354
; #@! TA.AperFunction,Plated,PTH,ComponentDrill
T5C0.0394
%
G90
G05
T1
X3.9646Y-4.1398
X3.99Y-5.67
X4.04Y-5.14
X4.05Y-5.35
X4.05Y-5.69
X4.05Y-5.78
X4.0969Y-5.6869
X4.23Y-5.68
X4.25Y-5.33
X4.2657Y-5.7411
X4.31Y-5.12
X4.3563Y-5.6132
X4.37Y-5.79
X4.3809Y-5.4
X4.3839Y-5.1909
X4.43Y-5.0
X4.43Y-5.32
X4.49Y-5.7469
X4.53Y-5.7116
X4.5335Y-5.4518
X4.5443Y-5.2531
X4.5668Y-5.4055
X4.5758Y-5.7746
X4.58Y-5.17
X4.63Y-5.73
X4.64Y-5.55
X4.66Y-5.39
X4.688Y-5.753
X4.7132Y-5.3979
X4.75Y-5.3839
X4.7559Y-4.6417
X4.79Y-5.78
X4.81Y-4.5
X4.82Y-5.55
X4.83Y-5.16
X4.84Y-5.72
X4.85Y-4.98
X4.9301Y-5.6407
X4.935Y-5.7579
X4.94Y-4.47
X4.95Y-4.98
X4.96Y-5.12
X4.9636Y-4.5787
X5.0177Y-4.4675
X5.03Y-5.73
X5.04Y-5.56
X5.05Y-4.98
X5.1142Y-4.56
X5.1142Y-5.2146
X5.14Y-4.98
X5.1437Y-4.3474
X5.1486Y-5.7372
X5.15Y-5.3288
X5.15Y-5.57
X5.17Y-5.45
X5.21Y-5.72
X5.25Y-4.98
X5.2982Y-5.7461
X5.32Y-5.7
X5.33Y-5.15
X5.3809Y-4.5108
X5.4Y-5.53
X5.4582Y-5.3182
X5.5059Y-5.0344
X5.53Y-5.38
X5.5404Y-4.6752
X5.5571Y-5.1496
X5.56Y-5.67
X5.59Y-4.25
X5.5984Y-5.3967
X5.6Y-5.17
X5.6486Y-5.5138
X5.6506Y-5.4675
X5.688Y-5.2923
X5.69Y-5.13
X5.7313Y-5.1614
X5.74Y-5.3
X5.74Y-5.67
X5.75Y-4.61
X5.7766Y-5.3465
X5.79Y-5.12
X5.8022Y-5.252
X5.8234Y-5.3967
X5.8234Y-5.5148
X5.8524Y-5.5886
X5.86Y-5.66
X5.8888Y-5.1969
X5.91Y-5.52
X5.9921Y-5.1594
X6.0541Y-5.3209
X6.063Y-4.2766
X6.0903Y-5.4983
X6.12Y-5.77
X6.1575Y-4.2805
X6.1969Y-5.1388
X6.2174Y-5.7126
X6.24Y-5.76
X6.252Y-5.4636
X6.2628Y-4.2805
X6.3041Y-5.1348
X6.3583Y-4.2697
X6.4045Y-5.4646
X6.4626Y-4.2707
X6.4646Y-5.6919
X6.49Y-5.77
X6.53Y-4.86
X6.5581Y-4.2697
X6.6634Y-4.2707
X6.7854Y-4.3799
X6.93Y-4.0
T2
X6.8342Y-4.83
X6.8342Y-4.88
X6.8342Y-4.93
T3
X3.8306Y-4.9002
X3.8306Y-5.0002
X3.8306Y-5.1002
X3.8306Y-5.2002
X3.8306Y-5.3002
X3.8306Y-5.4002
X3.8306Y-5.5002
X3.92Y-4.75
X4.0184Y-4.75
X4.1306Y-4.9002
X4.1306Y-5.0002
X4.1306Y-5.1002
X4.1306Y-5.2002
X4.1306Y-5.3002
X4.1306Y-5.4002
X4.1306Y-5.5002
X4.38Y-4.8466
X4.38Y-4.945
X4.46Y-4.06
X4.46Y-4.18
X4.46Y-4.3
X4.5002Y-4.7506
X4.5002Y-5.0506
X4.6002Y-4.7506
X4.6002Y-5.0506
X4.7002Y-4.7506
X4.7002Y-5.0506
X4.76Y-4.06
X4.76Y-4.18
X4.76Y-4.3
X4.8002Y-4.7506
X4.8002Y-5.0506
X4.9002Y-4.7506
X4.9002Y-5.0506
X5.0002Y-4.7506
X5.0002Y-5.0506
X5.1002Y-4.7506
X5.1002Y-5.0506
X5.2002Y-4.7506
X5.2002Y-5.0506
X5.3002Y-4.7506
X5.3002Y-5.0506
X5.4002Y-4.7506
X5.4002Y-5.0506
X5.6502Y-4.7406
X5.6502Y-5.0406
X5.7502Y-4.7406
X5.7502Y-5.0406
X5.8502Y-4.7406
X5.8502Y-5.0406
X5.9502Y-4.7406
X5.9502Y-5.0406
X6.0502Y-4.7406
X6.0502Y-5.0406
X6.1502Y-4.7406
X6.1502Y-5.0406
X6.2502Y-4.7406
X6.2502Y-5.0406
X6.3502Y-4.7406
X6.3502Y-5.0406
X6.4502Y-4.7406
X6.4502Y-5.0406
X6.5502Y-4.7406
X6.5502Y-5.0406
X6.655Y-4.9342
X6.655Y-5.0326
X6.84Y-5.25
X6.84Y-5.55
T4
X4.37Y-4.4398
X4.37Y-4.5398
X4.63Y-4.4398
X4.63Y-4.5398
T5
X3.7598Y-4.3922
X3.8598Y-4.3922
X4.0598Y-4.3922
X4.1598Y-4.3922
X4.9598Y-4.0698
X4.9598Y-4.1698
X5.0598Y-4.0698
X5.0598Y-4.1698
X5.1598Y-4.0698
X5.1598Y-4.1698
X5.2598Y-4.0698
X5.2598Y-4.1698
X5.3598Y-4.0698
X5.3598Y-4.1698
X5.4598Y-4.0698
X5.4598Y-4.1698
X5.5598Y-4.0698
X5.5598Y-4.1698
X5.6598Y-4.0698
X5.6598Y-4.1698
X5.7598Y-4.0698
X5.7598Y-4.1698
X5.82Y-4.41
X5.82Y-4.51
X5.8598Y-4.0698
X5.8598Y-4.1698
X5.9598Y-4.0698
X5.9598Y-4.1698
X6.0598Y-4.0698
X6.0598Y-4.1698
X6.1598Y-4.0698
X6.1598Y-4.1698
X6.2598Y-4.0698
X6.2598Y-4.1698
X6.3598Y-4.0698
X6.3598Y-4.1698
X6.4598Y-4.0698
X6.4598Y-4.1698
X6.5598Y-4.0698
X6.5598Y-4.1698
X6.6598Y-4.0698
X6.6598Y-4.1698
X6.7598Y-4.0698
X6.7598Y-4.1698
X6.8598Y-4.0698
X6.8598Y-4.1698
T0
M30
